# xmcd
#
# Track frame offsets: 
#        183
#        16920
#        32010
#        47255
#
# Disc length: 823 seconds
#
# Revision: 0
# Processed by: cddbd v1.5.2PL0 Copyright (c) Steve Scherf et al.
# Submitted via: ExactAudioCopy v0.99pb4
#
DISCID=20033504
DTITLE=Roy Rogers - Don't Give It Up
DYEAR=1993
DGENRE=Blues
TTITLE0=01 Don't Give It Up
TTITLE1=02 Slide Of Hand
TTITLE2=03 Stones In My Passway
TTITLE3=04 Rockin' At The Hey Hey
EXTD=
EXTT0=
EXTT1=
EXTT2=
EXTT3=
PLAYORDER=
